<svg xmlns="http://www.w3.org/2000/svg" xmlns:xlink="http://www.w3.org/1999/xlink" width="500" zoomAndPan="magnify" viewBox="0 0 375 374.999991" height="500" preserveAspectRatio="xMidYMid meet" version="1.0"><defs><g/><clipPath id="6a5c2f15c6"><path d="M 64.613281 77.351562 L 310.386719 77.351562 L 310.386719 323.125 L 64.613281 323.125 Z M 64.613281 77.351562 " clip-rule="nonzero"/></clipPath><clipPath id="b42b4442c9"><path d="M 187.5 77.351562 C 119.632812 77.351562 64.613281 132.371094 64.613281 200.238281 C 64.613281 268.109375 119.632812 323.125 187.5 323.125 C 255.367188 323.125 310.386719 268.109375 310.386719 200.238281 C 310.386719 132.371094 255.367188 77.351562 187.5 77.351562 Z M 187.5 77.351562 " clip-rule="nonzero"/></clipPath><clipPath id="3b1b714e4c"><path d="M 119.308594 140 L 188 140 L 188 200.019531 L 119.308594 200.019531 Z M 119.308594 140 " clip-rule="nonzero"/></clipPath><clipPath id="ac6af249c6"><path d="M 187 108.519531 L 255.808594 108.519531 L 255.808594 169 L 187 169 Z M 187 108.519531 " clip-rule="nonzero"/></clipPath></defs><g clip-path="url(#6a5c2f15c6)"><g clip-path="url(#b42b4442c9)"><path fill="#38b6ff" d="M 64.613281 77.351562 L 310.386719 77.351562 L 310.386719 323.125 L 64.613281 323.125 Z M 64.613281 77.351562 " fill-opacity="1" fill-rule="nonzero"/></g></g><g clip-path="url(#3b1b714e4c)"><path fill="#ffffff" d="M 165.230469 182.664062 L 165.230469 190.964844 L 127.636719 173.5 L 127.636719 166.765625 L 165.230469 149.296875 L 165.230469 157.601562 L 136.800781 170.054688 L 136.800781 170.210938 Z M 187.558594 140.074219 L 124.6875 140.074219 C 121.71875 140.074219 119.3125 142.480469 119.3125 145.449219 L 119.3125 194.816406 C 119.3125 197.785156 121.71875 200.191406 124.6875 200.191406 L 170.105469 200.191406 L 187.558594 140.074219 " fill-opacity="1" fill-rule="nonzero"/></g><g clip-path="url(#ac6af249c6)"><path fill="#0652e9" d="M 247.378906 142.210938 L 209.785156 159.441406 L 209.785156 151.136719 L 238.839844 138.683594 L 238.839844 138.527344 L 209.785156 126.074219 L 209.785156 117.773438 L 247.378906 135.003906 Z M 205.011719 108.546875 L 187.558594 168.664062 L 250.328125 168.664062 C 253.292969 168.664062 255.699219 166.257812 255.699219 163.289062 L 255.699219 113.921875 C 255.699219 110.953125 253.292969 108.546875 250.328125 108.546875 L 205.011719 108.546875 " fill-opacity="1" fill-rule="nonzero"/></g><g fill="#000000" fill-opacity="1"><g transform="translate(125.355029, 236.784858)"><g><path d="M 14.171875 -21 L 14.171875 -5.390625 C 14.171875 -3.660156 13.59375 -2.28125 12.4375 -1.25 C 11.28125 -0.226562 9.628906 0.28125 7.484375 0.28125 C 5.578125 0.28125 4.0625 -0.125 2.9375 -0.9375 C 1.820312 -1.757812 1.144531 -2.882812 0.90625 -4.3125 L 5.453125 -5.640625 C 5.546875 -5.097656 5.78125 -4.648438 6.15625 -4.296875 C 6.53125 -3.953125 6.972656 -3.78125 7.484375 -3.78125 C 8.066406 -3.78125 8.554688 -3.988281 8.953125 -4.40625 C 9.359375 -4.832031 9.5625 -5.359375 9.5625 -5.984375 L 9.5625 -16.90625 L 2.65625 -16.90625 L 2.65625 -21 Z M 14.171875 -21 "/></g></g></g><g fill="#000000" fill-opacity="1"><g transform="translate(142.509823, 236.784858)"><g><path d="M 12.078125 0.28125 C 10.578125 0.28125 9.179688 0 7.890625 -0.5625 C 6.597656 -1.125 5.453125 -1.898438 4.453125 -2.890625 C 3.460938 -3.878906 2.6875 -5.019531 2.125 -6.3125 C 1.570312 -7.613281 1.296875 -9.007812 1.296875 -10.5 C 1.296875 -11.988281 1.570312 -13.378906 2.125 -14.671875 C 2.6875 -15.972656 3.460938 -17.117188 4.453125 -18.109375 C 5.453125 -19.097656 6.597656 -19.875 7.890625 -20.4375 C 9.179688 -21 10.578125 -21.28125 12.078125 -21.28125 C 13.566406 -21.28125 14.960938 -21 16.265625 -20.4375 C 17.578125 -19.875 18.722656 -19.097656 19.703125 -18.109375 C 20.679688 -17.117188 21.453125 -15.972656 22.015625 -14.671875 C 22.578125 -13.378906 22.859375 -11.988281 22.859375 -10.5 C 22.859375 -9.007812 22.578125 -7.613281 22.015625 -6.3125 C 21.453125 -5.019531 20.679688 -3.878906 19.703125 -2.890625 C 18.722656 -1.898438 17.578125 -1.125 16.265625 -0.5625 C 14.960938 0 13.566406 0.28125 12.078125 0.28125 Z M 12.078125 -4.234375 C 13.265625 -4.234375 14.328125 -4.503906 15.265625 -5.046875 C 16.210938 -5.597656 16.960938 -6.347656 17.515625 -7.296875 C 18.066406 -8.242188 18.34375 -9.3125 18.34375 -10.5 C 18.34375 -11.6875 18.066406 -12.753906 17.515625 -13.703125 C 16.960938 -14.648438 16.210938 -15.394531 15.265625 -15.9375 C 14.328125 -16.488281 13.265625 -16.765625 12.078125 -16.765625 C 10.910156 -16.765625 9.851562 -16.488281 8.90625 -15.9375 C 7.957031 -15.394531 7.207031 -14.648438 6.65625 -13.703125 C 6.113281 -12.753906 5.84375 -11.6875 5.84375 -10.5 C 5.84375 -9.3125 6.113281 -8.242188 6.65625 -7.296875 C 7.207031 -6.347656 7.957031 -5.597656 8.90625 -5.046875 C 9.851562 -4.503906 10.910156 -4.234375 12.078125 -4.234375 Z M 12.078125 -4.234375 "/></g></g></g><g fill="#000000" fill-opacity="1"><g transform="translate(167.92347, 236.784858)"><g><path d="M 6.6875 -4.09375 L 13.65625 -4.09375 L 13.65625 0 L 2.0625 0 L 2.0625 -21 L 6.6875 -21 Z M 6.6875 -4.09375 "/></g></g></g><g fill="#000000" fill-opacity="1"><g transform="translate(182.873573, 236.784858)"><g><path d="M 10.671875 0.28125 C 9.035156 0.28125 7.554688 -0.0234375 6.234375 -0.640625 C 4.921875 -1.265625 3.878906 -2.109375 3.109375 -3.171875 C 2.335938 -4.234375 1.953125 -5.414062 1.953125 -6.71875 L 1.953125 -21 L 6.578125 -21 L 6.578125 -7.59375 C 6.578125 -6.519531 6.972656 -5.617188 7.765625 -4.890625 C 8.554688 -4.171875 9.523438 -3.8125 10.671875 -3.8125 C 11.835938 -3.8125 12.816406 -4.171875 13.609375 -4.890625 C 14.410156 -5.617188 14.8125 -6.519531 14.8125 -7.59375 L 14.8125 -21 L 19.421875 -21 L 19.421875 -6.71875 C 19.421875 -5.414062 19.035156 -4.234375 18.265625 -3.171875 C 17.492188 -2.109375 16.445312 -1.265625 15.125 -0.640625 C 13.8125 -0.0234375 12.328125 0.28125 10.671875 0.28125 Z M 10.671875 0.28125 "/></g></g></g><g fill="#000000" fill-opacity="1"><g transform="translate(205.487612, 236.784858)"><g><path d="M 13.015625 -8.640625 L 18.90625 0 L 13.71875 0 L 8.546875 -8.125 L 6.6875 -8.125 L 6.6875 0 L 2.0625 0 L 2.0625 -21 L 10.984375 -21 C 12.203125 -21 13.273438 -20.710938 14.203125 -20.140625 C 15.140625 -19.566406 15.878906 -18.789062 16.421875 -17.8125 C 16.972656 -16.832031 17.25 -15.75 17.25 -14.5625 C 17.25 -13.132812 16.851562 -11.882812 16.0625 -10.8125 C 15.269531 -9.738281 14.253906 -9.015625 13.015625 -8.640625 Z M 10.296875 -11.9375 C 11.035156 -11.9375 11.644531 -12.164062 12.125 -12.625 C 12.601562 -13.09375 12.84375 -13.691406 12.84375 -14.421875 C 12.84375 -15.140625 12.601562 -15.734375 12.125 -16.203125 C 11.644531 -16.671875 11.035156 -16.90625 10.296875 -16.90625 L 6.6875 -16.90625 L 6.6875 -11.9375 Z M 10.296875 -11.9375 "/></g></g></g><g fill="#000000" fill-opacity="1"><g transform="translate(225.442016, 236.784858)"><g><path d="M 12.078125 0.28125 C 10.578125 0.28125 9.179688 0 7.890625 -0.5625 C 6.597656 -1.125 5.453125 -1.898438 4.453125 -2.890625 C 3.460938 -3.878906 2.6875 -5.019531 2.125 -6.3125 C 1.570312 -7.613281 1.296875 -9.007812 1.296875 -10.5 C 1.296875 -11.988281 1.570312 -13.378906 2.125 -14.671875 C 2.6875 -15.972656 3.460938 -17.117188 4.453125 -18.109375 C 5.453125 -19.097656 6.597656 -19.875 7.890625 -20.4375 C 9.179688 -21 10.578125 -21.28125 12.078125 -21.28125 C 13.566406 -21.28125 14.960938 -21 16.265625 -20.4375 C 17.578125 -19.875 18.722656 -19.097656 19.703125 -18.109375 C 20.679688 -17.117188 21.453125 -15.972656 22.015625 -14.671875 C 22.578125 -13.378906 22.859375 -11.988281 22.859375 -10.5 C 22.859375 -9.007812 22.578125 -7.613281 22.015625 -6.3125 C 21.453125 -5.019531 20.679688 -3.878906 19.703125 -2.890625 C 18.722656 -1.898438 17.578125 -1.125 16.265625 -0.5625 C 14.960938 0 13.566406 0.28125 12.078125 0.28125 Z M 12.078125 -4.234375 C 13.265625 -4.234375 14.328125 -4.503906 15.265625 -5.046875 C 16.210938 -5.597656 16.960938 -6.347656 17.515625 -7.296875 C 18.066406 -8.242188 18.34375 -9.3125 18.34375 -10.5 C 18.34375 -11.6875 18.066406 -12.753906 17.515625 -13.703125 C 16.960938 -14.648438 16.210938 -15.394531 15.265625 -15.9375 C 14.328125 -16.488281 13.265625 -16.765625 12.078125 -16.765625 C 10.910156 -16.765625 9.851562 -16.488281 8.90625 -15.9375 C 7.957031 -15.394531 7.207031 -14.648438 6.65625 -13.703125 C 6.113281 -12.753906 5.84375 -11.6875 5.84375 -10.5 C 5.84375 -9.3125 6.113281 -8.242188 6.65625 -7.296875 C 7.207031 -6.347656 7.957031 -5.597656 8.90625 -5.046875 C 9.851562 -4.503906 10.910156 -4.234375 12.078125 -4.234375 Z M 12.078125 -4.234375 "/></g></g></g><g fill="#000000" fill-opacity="1"><g transform="translate(141.373098, 263.17888)"><g><path d="M 3.359375 0.125 C 2.691406 0.125 2.09375 -0.0390625 1.5625 -0.375 C 1.039062 -0.71875 0.664062 -1.160156 0.4375 -1.703125 L 1.3125 -2.21875 C 1.46875 -1.8125 1.722656 -1.476562 2.078125 -1.21875 C 2.429688 -0.96875 2.863281 -0.84375 3.375 -0.84375 C 3.875 -0.84375 4.296875 -0.972656 4.640625 -1.234375 C 4.992188 -1.492188 5.171875 -1.863281 5.171875 -2.34375 C 5.171875 -2.707031 5.066406 -3.003906 4.859375 -3.234375 C 4.648438 -3.472656 4.378906 -3.671875 4.046875 -3.828125 C 3.710938 -3.992188 3.359375 -4.148438 2.984375 -4.296875 C 2.617188 -4.441406 2.265625 -4.613281 1.921875 -4.8125 C 1.585938 -5.007812 1.316406 -5.257812 1.109375 -5.5625 C 0.898438 -5.875 0.796875 -6.269531 0.796875 -6.75 C 0.796875 -7.238281 0.90625 -7.660156 1.125 -8.015625 C 1.351562 -8.367188 1.65625 -8.640625 2.03125 -8.828125 C 2.414062 -9.023438 2.835938 -9.125 3.296875 -9.125 C 3.816406 -9.125 4.285156 -9.015625 4.703125 -8.796875 C 5.117188 -8.578125 5.453125 -8.3125 5.703125 -8 L 4.953125 -7.359375 C 4.578125 -7.890625 4.035156 -8.15625 3.328125 -8.15625 C 2.910156 -8.15625 2.539062 -8.046875 2.21875 -7.828125 C 1.90625 -7.609375 1.75 -7.273438 1.75 -6.828125 C 1.75 -6.460938 1.851562 -6.171875 2.0625 -5.953125 C 2.28125 -5.734375 2.554688 -5.546875 2.890625 -5.390625 C 3.222656 -5.234375 3.570312 -5.082031 3.9375 -4.9375 C 4.3125 -4.789062 4.664062 -4.613281 5 -4.40625 C 5.332031 -4.207031 5.601562 -3.945312 5.8125 -3.625 C 6.03125 -3.300781 6.140625 -2.882812 6.140625 -2.375 C 6.140625 -1.851562 6.015625 -1.40625 5.765625 -1.03125 C 5.515625 -0.65625 5.175781 -0.367188 4.75 -0.171875 C 4.332031 0.0234375 3.867188 0.125 3.359375 0.125 Z M 3.359375 0.125 "/></g></g></g><g fill="#000000" fill-opacity="1"><g transform="translate(151.963168, 263.17888)"><g><path d="M 5.359375 0.125 C 4.710938 0.125 4.113281 0.00390625 3.5625 -0.234375 C 3.007812 -0.472656 2.519531 -0.804688 2.09375 -1.234375 C 1.664062 -1.660156 1.332031 -2.148438 1.09375 -2.703125 C 0.851562 -3.265625 0.734375 -3.863281 0.734375 -4.5 C 0.734375 -5.132812 0.851562 -5.726562 1.09375 -6.28125 C 1.332031 -6.84375 1.664062 -7.335938 2.09375 -7.765625 C 2.519531 -8.191406 3.007812 -8.523438 3.5625 -8.765625 C 4.113281 -9.003906 4.710938 -9.125 5.359375 -9.125 C 5.992188 -9.125 6.59375 -9.003906 7.15625 -8.765625 C 7.71875 -8.523438 8.207031 -8.191406 8.625 -7.765625 C 9.039062 -7.335938 9.367188 -6.84375 9.609375 -6.28125 C 9.847656 -5.726562 9.96875 -5.132812 9.96875 -4.5 C 9.96875 -3.863281 9.847656 -3.265625 9.609375 -2.703125 C 9.367188 -2.148438 9.039062 -1.660156 8.625 -1.234375 C 8.207031 -0.804688 7.71875 -0.472656 7.15625 -0.234375 C 6.59375 0.00390625 5.992188 0.125 5.359375 0.125 Z M 5.359375 -0.84375 C 6.035156 -0.84375 6.648438 -1.003906 7.203125 -1.328125 C 7.765625 -1.648438 8.207031 -2.085938 8.53125 -2.640625 C 8.851562 -3.203125 9.015625 -3.820312 9.015625 -4.5 C 9.015625 -5.175781 8.851562 -5.789062 8.53125 -6.34375 C 8.207031 -6.90625 7.765625 -7.347656 7.203125 -7.671875 C 6.648438 -7.992188 6.035156 -8.15625 5.359375 -8.15625 C 4.679688 -8.15625 4.066406 -7.992188 3.515625 -7.671875 C 2.960938 -7.347656 2.519531 -6.90625 2.1875 -6.34375 C 1.851562 -5.789062 1.6875 -5.175781 1.6875 -4.5 C 1.6875 -3.820312 1.851562 -3.203125 2.1875 -2.640625 C 2.519531 -2.085938 2.960938 -1.648438 3.515625 -1.328125 C 4.066406 -1.003906 4.679688 -0.84375 5.359375 -0.84375 Z M 5.359375 -0.84375 "/></g></g></g><g fill="#000000" fill-opacity="1"><g transform="translate(166.708234, 263.17888)"><g><path d="M 6.09375 -8.0625 L 2.125 -8.0625 L 2.125 -4.96875 L 5.578125 -4.96875 L 5.578125 -4.03125 L 2.125 -4.03125 L 2.125 0 L 1.171875 0 L 1.171875 -9 L 6.09375 -9 Z M 6.09375 -8.0625 "/></g></g></g><g fill="#000000" fill-opacity="1"><g transform="translate(177.088304, 263.17888)"><g><path d="M 6.078125 -9 L 6.078125 -8.046875 L 3.578125 -8.046875 L 3.578125 0 L 2.625 0 L 2.625 -8.046875 L 0.140625 -8.046875 L 0.140625 -9 Z M 6.078125 -9 "/></g></g></g><g fill="#000000" fill-opacity="1"><g transform="translate(187.318378, 263.17888)"><g><path d="M 11.234375 -9 L 12.21875 -9 L 9.421875 0 L 8.421875 0 L 6.0625 -7.984375 L 3.75 0 L 2.734375 0 L -0.09375 -9 L 0.9375 -9 L 3.21875 -1.625 L 5.390625 -9 L 6.734375 -9 L 8.921875 -1.609375 Z M 11.234375 -9 "/></g></g></g><g fill="#000000" fill-opacity="1"><g transform="translate(203.473434, 263.17888)"><g><path d="M 6.53125 0 L 5.796875 -2.09375 L 1.78125 -2.09375 L 1.046875 0 L 0 0 L 3.25 -9 L 4.3125 -9 L 7.578125 0 Z M 2.09375 -3.015625 L 5.46875 -3.015625 L 3.796875 -7.859375 Z M 2.09375 -3.015625 "/></g></g></g><g fill="#000000" fill-opacity="1"><g transform="translate(215.068502, 263.17888)"><g><path d="M 4.734375 -4.109375 L 7.390625 0 L 6.296875 0 L 3.75 -4.0625 L 2.0625 -4.0625 L 2.0625 0 L 1.09375 0 L 1.09375 -9 L 4.3125 -9 C 4.78125 -9 5.203125 -8.882812 5.578125 -8.65625 C 5.960938 -8.4375 6.265625 -8.132812 6.484375 -7.75 C 6.710938 -7.375 6.828125 -6.953125 6.828125 -6.484375 C 6.828125 -6.078125 6.734375 -5.703125 6.546875 -5.359375 C 6.359375 -5.023438 6.109375 -4.75 5.796875 -4.53125 C 5.492188 -4.3125 5.140625 -4.171875 4.734375 -4.109375 Z M 2.0625 -4.984375 L 4.265625 -4.984375 C 4.722656 -4.984375 5.101562 -5.117188 5.40625 -5.390625 C 5.707031 -5.671875 5.859375 -6.046875 5.859375 -6.515625 C 5.859375 -6.960938 5.703125 -7.328125 5.390625 -7.609375 C 5.085938 -7.898438 4.710938 -8.046875 4.265625 -8.046875 L 2.0625 -8.046875 Z M 2.0625 -4.984375 "/></g></g></g><g fill="#000000" fill-opacity="1"><g transform="translate(226.618571, 263.17888)"><g><path d="M 6.09375 -8.0625 L 2.125 -8.0625 L 2.125 -4.96875 L 5.578125 -4.96875 L 5.578125 -4.03125 L 2.125 -4.03125 L 2.125 -0.9375 L 6.09375 -0.9375 L 6.09375 0 L 1.171875 0 L 1.171875 -9 L 6.09375 -9 Z M 6.09375 -8.0625 "/></g></g></g></svg>